<?xml version="1.0" standalone="no"?>
<!DOCTYPE svg PUBLIC "-//W3C//DTD SVG 20010904//EN"
 "http://www.w3.org/TR/2001/REC-SVG-20010904/DTD/svg10.dtd">
<svg version="1.0" xmlns="http://www.w3.org/2000/svg"
 width="450.000000pt" height="458.000000pt" viewBox="0 0 450.000000 458.000000"
 preserveAspectRatio="xMidYMid meet">
<metadata>
Created by potrace 1.16, written by Peter Selinger 2001-2019
</metadata>
<g transform="translate(0.000000,458.000000) scale(0.100000,-0.100000)"
fill="red" stroke="none">
<path d="M2240 4213 c-34 -12 -81 -69 -92 -110 -6 -24 -15 -43 -20 -43 -15 0
-37 26 -43 53 -11 42 -49 69 -105 75 -89 8 -152 -54 -154 -153 -1 -42 -27 -42
-54 0 -46 72 -120 93 -187 54 -47 -28 -69 -71 -68 -136 2 -63 -15 -70 -59 -24
-51 52 -109 56 -184 14 -28 -16 -58 -96 -49 -131 17 -70 17 -82 3 -82 -8 0
-23 9 -33 20 -42 47 -130 49 -183 5 -52 -43 -61 -91 -36 -189 7 -28 6 -29 -22
-21 -105 26 -173 8 -207 -56 -24 -45 -18 -121 12 -152 41 -44 29 -55 -53 -49
-66 4 -77 2 -106 -19 -66 -49 -76 -149 -22 -207 33 -36 30 -52 -9 -52 -41 0
-88 -21 -126 -58 -29 -26 -33 -36 -33 -82 0 -61 19 -103 60 -127 40 -23 42
-57 2 -49 -20 5 -39 -1 -74 -23 -58 -37 -82 -80 -75 -133 7 -54 30 -85 82
-109 54 -26 58 -46 9 -55 -66 -12 -124 -80 -124 -146 0 -44 40 -102 82 -117
51 -19 63 -27 66 -44 2 -8 -6 -18 -17 -22 -77 -24 -125 -135 -87 -203 17 -32
65 -62 99 -62 29 0 57 -20 57 -39 0 -6 -9 -15 -21 -21 -50 -27 -79 -145 -48
-202 15 -27 94 -61 125 -54 16 4 30 1 39 -8 19 -19 19 -30 -1 -46 -44 -37 -55
-141 -20 -194 22 -34 86 -51 139 -38 31 8 43 8 53 -3 18 -18 18 -18 -11 -61
-34 -51 -33 -106 3 -159 l28 -40 80 0 c98 0 106 -6 98 -78 -5 -43 -2 -61 15
-95 12 -23 30 -46 40 -52 28 -14 83 -12 136 5 58 20 77 6 68 -49 -6 -39 15
-95 50 -133 28 -32 86 -30 153 4 48 24 54 25 68 10 9 -8 16 -27 16 -42 0 -14
9 -44 21 -66 40 -79 143 -87 216 -17 37 36 46 31 81 -44 29 -64 71 -92 127
-86 47 6 104 43 125 83 21 40 44 29 69 -33 30 -72 122 -105 182 -64 34 22 76
72 80 96 7 34 27 29 56 -13 33 -48 76 -71 132 -71 55 0 117 54 134 117 6 23
14 43 17 43 3 0 25 -16 49 -35 42 -34 66 -40 138 -37 53 2 91 50 107 134 9 48
17 52 58 29 86 -51 191 -27 222 50 9 22 16 62 16 89 0 46 11 63 24 41 9 -14
80 -23 129 -16 59 9 94 41 106 98 6 25 9 52 7 59 -2 7 -7 27 -10 45 l-5 31 57
-5 c74 -7 155 24 171 65 13 34 17 74 9 87 -3 6 -9 31 -13 58 l-7 47 38 0 c48
0 136 40 158 71 24 35 20 106 -9 158 -14 23 -25 47 -25 52 0 5 16 9 36 9 40 0
111 43 137 84 36 54 11 158 -40 171 -16 4 -23 13 -23 30 0 14 5 25 12 25 34 0
99 45 127 87 50 75 42 97 -68 197 -25 23 -28 46 -6 46 49 0 135 96 135 150 0
37 -36 85 -82 108 -24 11 -48 30 -55 41 -11 17 -8 22 22 40 22 13 42 38 59 74
30 63 32 84 10 115 -17 25 -84 62 -111 62 -10 0 -27 10 -37 21 -18 21 -18 22
14 47 37 29 48 53 55 126 5 43 3 57 -12 71 -25 26 -77 45 -120 45 -45 0 -72
29 -49 52 47 48 64 169 27 202 -26 23 -101 45 -134 39 -16 -3 -32 1 -42 11
-14 14 -14 20 -1 66 15 49 12 105 -4 115 -5 3 -6 13 -4 23 6 21 -35 42 -82 42
-21 0 -37 7 -43 18 -9 15 -10 15 -11 0 0 -24 -55 -34 -75 -14 -12 12 -13 20
-5 35 28 53 -5 172 -52 185 -40 10 -102 6 -132 -9 -15 -8 -33 -15 -38 -15 -22
0 -37 29 -35 71 1 55 -29 120 -65 137 -33 16 -107 1 -151 -30 -38 -27 -59 -16
-69 38 -18 86 -60 134 -121 135 -44 2 -81 -15 -115 -51 -16 -16 -32 -30 -36
-30 -14 0 -36 29 -36 47 0 35 -49 91 -107 121 -17 10 -30 8 -65 -7 -41 -17
-108 -80 -108 -101 0 -6 -6 -10 -13 -10 -15 0 -32 30 -41 72 -12 53 -105 93
-166 71z m305 -207 c233 -39 445 -117 638 -234 34 -21 67 -41 72 -43 20 -8
191 -145 249 -199 32 -30 100 -104 150 -165 127 -152 203 -280 285 -479 56
-134 103 -321 112 -442 10 -140 2 -410 -15 -504 -10 -55 -57 -228 -76 -280
-38 -101 -43 -112 -91 -209 -94 -184 -185 -308 -351 -474 -83 -84 -135 -143
-132 -151 3 -8 1 -17 -5 -21 -6 -3 -11 1 -11 9 0 24 -12 20 -56 -17 -46 -40
-220 -146 -296 -181 -102 -47 -126 -56 -249 -91 -144 -42 -193 -52 -309 -66
-46 -5 -88 -15 -92 -22 -5 -8 -8 -8 -8 -1 0 8 -33 12 -99 12 -158 1 -306 21
-441 58 -172 48 -215 65 -368 145 -205 107 -357 227 -517 409 -49 57 -97 113
-105 125 -58 86 -81 124 -141 235 -136 254 -200 513 -202 815 0 176 10 271 44
415 23 97 78 260 107 317 46 92 58 112 103 189 157 270 411 508 713 668 125
67 258 120 361 144 130 31 225 51 265 56 75 9 370 -3 465 -18z"/>
<path d="M2140 3969 c-227 -13 -522 -104 -725 -224 -99 -59 -238 -162 -328
-245 -81 -74 -221 -242 -277 -332 -40 -64 -150 -281 -150 -297 0 -4 -6 -21
-14 -37 -20 -39 -60 -195 -87 -329 -18 -97 -20 -134 -16 -310 4 -194 6 -205
45 -357 22 -86 47 -172 55 -190 9 -18 32 -71 53 -118 44 -100 118 -224 199
-335 61 -83 239 -264 319 -325 26 -19 61 -46 79 -61 73 -57 275 -164 368 -194
30 -9 68 -23 84 -30 32 -13 115 -33 255 -61 92 -18 314 -25 420 -13 242 26
423 80 638 189 67 34 122 66 122 71 0 5 6 9 13 9 7 0 32 16 54 35 23 19 45 35
50 35 12 0 196 169 237 218 20 24 33 48 30 53 -3 5 1 9 9 9 23 0 82 75 200
255 14 22 36 63 47 90 12 28 27 61 35 75 43 80 108 304 131 455 17 112 19 275
3 275 -8 0 -8 5 1 15 22 26 -4 244 -46 395 -26 89 -86 250 -121 322 -165 340
-508 665 -858 813 -118 50 -294 106 -335 107 -14 0 -29 4 -35 8 -31 24 -273
40 -455 29z m305 -60 c298 -37 565 -139 800 -307 130 -93 309 -270 387 -383
77 -110 128 -189 128 -198 0 -5 13 -36 30 -68 95 -192 157 -461 160 -686 2
-172 -37 -416 -86 -540 -19 -48 -34 -92 -34 -97 0 -23 -101 -213 -158 -299
-34 -51 -62 -94 -62 -97 0 -16 -256 -280 -292 -302 -16 -9 -28 -24 -28 -34 0
-12 -5 -15 -16 -11 -8 3 -25 -3 -37 -14 -27 -23 -173 -111 -242 -146 -137 -68
-314 -123 -505 -158 -212 -38 -567 1 -787 86 -144 55 -360 174 -430 235 -18
17 -37 30 -41 30 -15 1 -227 215 -283 287 -66 83 -211 340 -244 433 -139 384
-148 758 -29 1115 100 301 260 543 491 741 132 113 151 128 213 164 204 120
395 195 590 230 63 12 126 24 139 28 34 10 228 4 336 -9z"/>
<path d="M2272 3815 c-13 -10 -18 -22 -15 -38 4 -22 0 -23 -91 -38 -86 -13
-95 -13 -99 2 -6 24 -104 33 -150 14 -33 -13 -36 -18 -35 -55 0 -22 4 -43 9
-45 4 -3 15 -30 24 -60 12 -43 20 -55 35 -55 24 0 24 -2 0 60 -26 66 -33 122
-17 132 24 15 97 6 97 -12 0 -4 -18 -10 -40 -14 -41 -6 -56 -26 -21 -26 31 0
36 -21 10 -41 -24 -19 -24 -20 -5 -34 11 -8 33 -15 49 -15 27 0 28 2 22 33 -4
17 -9 40 -11 50 -3 10 0 17 9 17 13 0 37 -59 37 -93 0 -16 26 -31 34 -18 3 4
-1 35 -8 69 l-13 62 41 0 c39 0 40 0 18 -16 -12 -8 -22 -24 -22 -34 0 -27 49
-62 76 -56 13 4 26 2 29 -4 3 -5 12 -10 20 -10 10 0 12 9 8 33 -3 23 0 37 12
47 14 12 18 12 25 0 5 -8 6 -18 4 -22 -3 -5 -2 -17 1 -29 5 -16 10 -18 21 -8
8 6 14 20 14 31 0 26 -44 68 -72 69 -23 0 -23 0 -2 9 22 9 38 36 29 50 -3 5
-1 12 5 15 15 9 42 -15 36 -31 -3 -7 1 -17 8 -23 8 -6 17 -35 20 -63 7 -52 20
-78 37 -78 5 0 8 35 7 77 -3 76 -4 78 -42 113 -49 45 -69 52 -94 35z"/>
<path d="M2520 3744 c0 -8 13 -20 30 -25 32 -12 31 -34 -1 -26 -25 7 -43 -16
-31 -40 6 -10 15 -30 21 -45 16 -41 33 -36 25 7 -7 39 -6 40 30 24 20 -10 24
-17 19 -39 -6 -32 13 -50 25 -23 10 23 53 93 57 93 2 0 15 -4 29 -10 36 -13
32 -28 -6 -32 -30 -3 -33 -6 -30 -32 2 -16 10 -42 18 -58 18 -35 37 -28 24 8
-6 14 -8 30 -5 35 9 14 59 -28 80 -67 13 -24 28 -37 47 -41 16 -3 26 -8 24
-11 -7 -7 13 -42 24 -42 5 0 12 10 16 22 3 12 20 44 36 70 17 27 29 50 27 52
-20 13 -59 36 -63 36 -2 0 -2 -18 1 -39 5 -33 2 -41 -16 -51 -27 -14 -63 -10
-69 9 -3 10 0 12 12 8 23 -9 52 7 59 32 10 42 -87 101 -275 167 -113 39 -108
39 -108 18z"/>
<path d="M1737 3713 c-14 -13 -7 -23 16 -23 13 0 31 -6 41 -13 17 -13 16 -15
-15 -27 -46 -18 -45 -17 -19 -45 20 -21 22 -29 14 -57 -7 -23 -17 -34 -32 -36
-22 -3 -30 12 -12 23 16 10 12 25 -6 25 -13 0 -14 3 -4 15 7 8 10 22 6 30 -8
22 -53 19 -73 -5 -18 -21 -63 -28 -63 -9 0 19 -67 40 -95 29 -38 -15 -32 -34
9 -26 19 4 37 2 40 -3 3 -5 0 -9 -7 -8 -31 1 -47 -4 -47 -14 0 -8 12 -10 35
-6 19 3 35 3 35 -1 0 -4 -32 -25 -70 -47 -65 -37 -84 -55 -60 -55 6 0 20 -11
32 -25 14 -16 32 -25 50 -25 24 0 29 -4 26 -22 -4 -27 18 -35 25 -8 3 13 11
18 20 14 25 -9 27 10 5 69 -12 32 -18 60 -15 63 12 12 27 -9 38 -52 8 -32 16
-44 30 -44 24 0 24 17 0 71 -11 24 -18 45 -16 48 8 7 65 -22 64 -33 -3 -28 3
-36 28 -36 14 0 34 7 44 16 15 13 24 14 49 6 36 -13 36 -9 9 59 -17 45 -18 54
-6 66 12 13 16 8 25 -30 12 -44 45 -97 56 -87 3 3 -2 32 -10 64 -8 32 -13 64
-10 72 3 7 -4 16 -15 19 -11 4 -31 17 -46 31 -25 23 -62 32 -76 17z"/>
<path d="M3040 3500 c6 -10 26 -31 45 -46 52 -40 46 -63 -7 -25 -55 40 -68 40
-68 -3 0 -40 12 -51 39 -37 30 17 47 -10 31 -50 -9 -22 -10 -33 -2 -41 13 -13
47 21 63 65 6 15 17 27 25 27 31 0 1 42 -69 94 -54 41 -73 46 -57 16z"/>
<path d="M2088 3435 c-53 -8 -119 -20 -145 -28 -71 -21 -203 -78 -203 -87 0
-4 -14 -10 -30 -14 -17 -3 -43 -14 -58 -24 -15 -11 -53 -36 -84 -57 -134 -89
-304 -292 -383 -457 -18 -38 -39 -76 -46 -84 -6 -8 -9 -17 -6 -20 3 -3 -4 -36
-14 -72 -11 -37 -26 -96 -33 -132 -84 -397 72 -852 388 -1128 283 -248 647
-346 1019 -276 144 28 285 80 379 141 196 128 292 220 400 381 69 106 86 136
131 252 48 123 84 362 72 485 -10 101 -32 227 -51 282 -62 189 -175 372 -311
505 -67 67 -183 158 -199 158 -3 0 -17 9 -31 20 -14 11 -41 22 -62 26 -20 4
-54 19 -76 33 -132 88 -421 130 -657 96z m312 -55 c94 -10 309 -70 340 -95 8
-7 29 -17 47 -23 54 -18 194 -117 269 -189 133 -129 222 -261 284 -420 56
-141 73 -238 74 -418 1 -135 -2 -160 -28 -254 -15 -58 -39 -129 -52 -159 -13
-30 -24 -63 -24 -72 0 -10 -4 -20 -8 -22 -4 -2 -22 -27 -40 -55 -132 -217
-306 -375 -525 -477 -299 -140 -646 -138 -945 5 -189 90 -354 228 -456 380
-27 41 -57 86 -67 100 -23 33 -60 124 -89 214 -12 39 -26 79 -30 90 -18 44
-29 260 -20 370 9 102 34 227 50 250 4 6 13 28 20 50 11 36 45 105 90 183 30
52 98 138 166 208 115 118 202 178 359 247 195 86 358 110 585 87z"/>
<path d="M2086 3262 c-12 -23 -29 -32 -101 -54 -71 -21 -92 -24 -120 -15 -28
8 -39 6 -72 -13 -21 -13 -69 -41 -108 -63 -79 -45 -84 -51 -85 -92 -1 -43 -91
-139 -145 -154 -28 -8 -47 -21 -62 -46 -13 -19 -23 -37 -23 -41 0 -3 -18 -36
-40 -74 -43 -73 -47 -95 -25 -123 11 -16 11 -25 0 -57 -7 -21 -17 -59 -20 -83
-5 -32 -16 -53 -36 -71 l-29 -26 2 -130 c1 -72 5 -134 8 -139 3 -4 15 -13 28
-20 12 -6 22 -20 22 -30 0 -9 11 -46 25 -80 22 -52 24 -68 16 -98 -9 -33 -6
-43 45 -135 78 -141 74 -136 109 -135 25 1 41 -10 88 -58 l57 -59 -20 -28 -20
-27 23 -16 c12 -9 75 -48 141 -87 96 -56 124 -69 145 -63 14 4 37 7 51 8 42 1
164 -36 188 -57 21 -19 37 -21 136 -21 95 0 116 3 141 20 17 11 69 32 117 46
75 23 90 25 105 13 10 -7 24 -14 31 -14 20 0 302 161 302 173 0 6 -10 21 -22
34 l-21 23 64 69 c42 45 77 73 102 82 33 11 44 23 73 78 20 36 48 88 64 116
26 45 27 51 14 76 -12 23 -12 33 0 66 7 21 16 59 20 85 4 28 17 60 32 77 23
27 24 36 24 158 l0 129 -30 22 c-16 13 -30 30 -30 38 0 9 -11 49 -25 90 -20
61 -23 78 -13 99 9 20 8 29 -3 42 -8 10 -24 36 -34 58 -11 22 -37 65 -57 96
-30 46 -42 56 -65 57 -40 1 -160 114 -169 159 -5 27 -20 40 -109 92 -130 77
-127 76 -165 56 -30 -15 -35 -15 -93 4 -33 12 -69 21 -79 21 -11 0 -29 11 -42
25 -23 24 -27 25 -159 25 l-136 0 -15 -28z m409 -141 c210 -56 401 -192 524
-375 97 -144 136 -251 149 -408 16 -208 -16 -369 -105 -527 -51 -89 -168 -234
-194 -239 -10 -2 -40 28 -77 77 l-61 80 54 58 c67 70 140 209 160 308 19 92
19 245 0 320 -15 56 -60 164 -74 175 -3 3 -14 21 -24 40 -49 96 -213 214 -354
257 -73 21 -238 24 -308 4 -60 -17 -225 -98 -225 -110 0 -4 -17 -20 -39 -34
-58 -38 -136 -150 -177 -252 -31 -79 -36 -104 -41 -201 -4 -93 -1 -122 16
-177 30 -99 90 -206 140 -251 12 -11 21 -23 21 -28 0 -4 -17 -32 -37 -60 -46
-67 -144 -200 -154 -212 -10 -12 -72 42 -130 114 -91 113 -165 284 -189 437
-9 57 -6 230 5 288 11 53 54 184 76 228 70 138 184 273 293 346 122 83 210
122 351 156 87 21 296 13 400 -14z m-27 -287 c144 -30 285 -138 369 -285 26
-46 60 -151 69 -214 4 -27 12 -53 18 -57 8 -5 7 -8 -1 -8 -8 0 -13 -14 -13
-39 0 -43 -32 -182 -57 -245 -21 -51 -82 -142 -121 -179 l-30 -29 -45 57 c-72
92 -75 100 -50 144 12 20 25 55 29 77 3 21 15 47 26 58 14 13 18 26 14 45 -3
14 -13 67 -22 116 -19 109 -51 171 -124 245 -74 74 -176 114 -277 108 -153 -9
-283 -112 -308 -243 -19 -96 6 -212 62 -287 l35 -48 -34 -42 c-19 -24 -45 -60
-59 -80 -13 -21 -27 -38 -31 -38 -12 0 -95 114 -116 160 -50 111 -62 198 -43
308 32 178 130 322 283 415 66 40 103 53 208 72 72 13 110 11 218 -11z m-100
-277 c134 -49 211 -150 236 -307 3 -14 5 -27 7 -30 1 -3 2 -16 3 -30 1 -14 6
-24 14 -22 19 3 14 -15 -6 -20 -11 -3 -22 -23 -31 -59 -16 -62 -31 -99 -41
-99 -3 0 -27 29 -53 64 l-46 65 11 66 c9 56 9 75 -6 118 -19 59 -36 82 -86
117 -19 13 -43 35 -54 48 -17 22 -112 72 -135 72 -17 0 -12 -13 14 -39 25 -24
33 -51 15 -51 -21 0 -91 -54 -110 -85 -24 -39 -25 -51 -4 -59 11 -4 29 8 56
39 44 49 75 60 64 23 -3 -13 -9 -51 -13 -85 -5 -51 -9 -63 -24 -63 -16 0 -40
-24 -82 -84 -24 -35 -32 -33 -61 13 -48 75 -63 200 -31 261 24 47 110 130 135
130 11 0 20 4 20 10 0 13 55 28 105 29 22 0 68 -10 103 -22z m-161 -442 c44
-19 79 -19 130 -1 l40 14 89 -124 c49 -68 118 -164 154 -213 154 -211 271
-374 268 -375 -40 -19 -163 -82 -191 -98 -36 -21 -39 -21 -66 -5 -26 15 -33
15 -68 3 -21 -7 -57 -17 -81 -21 -23 -4 -57 -19 -74 -33 -28 -24 -42 -27 -120
-31 -102 -4 -130 2 -156 29 -11 12 -52 27 -106 40 -74 17 -94 18 -122 8 -36
-13 -48 -9 -111 35 -18 12 -53 35 -78 50 -25 16 -45 32 -45 37 0 5 52 82 116
172 129 183 149 211 202 285 20 29 54 76 74 105 76 108 98 138 103 138 3 0 22
-7 42 -15z"/>
<path d="M2285 1918 c-82 -28 -111 -65 -122 -156 -7 -66 1 -98 33 -119 24 -15
28 -15 38 -1 6 8 16 15 21 14 14 -1 19 44 6 57 -7 7 -14 1 -21 -19 -11 -27
-12 -28 -25 -11 -13 18 -10 52 8 75 12 15 47 16 47 1 0 -6 8 -8 19 -4 21 6 49
-19 31 -30 -14 -9 6 -35 26 -35 8 0 14 -4 14 -10 0 -5 9 -10 20 -10 19 0 20 7
20 115 0 106 -1 115 -19 115 -10 0 -21 7 -25 15 -6 17 -27 18 -71 3z"/>
<path d="M1933 1728 c-50 -25 -64 -66 -36 -107 10 -14 23 -40 29 -58 10 -28 9
-32 -7 -36 -27 -7 -23 -33 7 -54 15 -10 37 -29 50 -42 22 -22 27 -23 49 -11
18 10 25 22 25 42 0 29 1 29 47 27 31 -2 48 1 51 9 5 17 -27 52 -48 52 -36 0
-40 23 -9 64 16 22 29 52 29 67 0 23 -5 28 -37 34 -20 4 -46 13 -57 21 -27 18
-43 17 -93 -8z"/>
<path d="M2506 1683 c-3 -4 -25 -7 -48 -7 -46 -1 -55 -18 -38 -70 8 -22 7 -32
-2 -37 -17 -11 -5 -21 45 -39 27 -10 43 -23 45 -35 6 -30 21 -42 32 -25 6 8 8
21 5 29 -7 18 13 41 36 41 24 0 25 17 2 23 -15 4 -15 5 2 6 14 1 21 9 23 26 1
14 -3 25 -8 25 -6 0 -10 7 -10 15 0 9 6 12 16 8 12 -4 15 -1 12 13 -3 15 -12
19 -43 19 -22 0 -45 3 -51 7 -6 4 -14 5 -18 1z"/>
<path d="M1232 3332 c-29 -26 -52 -51 -52 -56 0 -5 14 -6 30 -2 27 5 30 3 30
-19 0 -31 13 -38 56 -30 24 4 38 13 44 29 7 19 14 22 39 18 46 -7 38 14 -20
49 -32 20 -48 36 -45 45 12 30 -33 12 -82 -34z"/>
<path d="M3317 3330 c-21 -17 -26 -18 -31 -5 -9 25 -29 18 -22 -8 4 -19 -2
-29 -39 -55 -25 -17 -45 -36 -45 -41 0 -17 28 -20 41 -5 7 9 30 25 52 36 l40
20 36 -36 c25 -25 31 -36 20 -36 -9 0 -22 7 -29 15 -16 19 -44 19 -60 0 -10
-12 -11 -24 -2 -53 8 -24 8 -38 2 -40 -6 -2 -10 -15 -10 -28 0 -19 5 -24 25
-24 18 0 25 5 25 20 0 12 7 20 16 20 24 0 13 43 -13 55 -25 11 -31 35 -10 35
8 0 24 -11 36 -24 20 -21 26 -23 43 -13 16 10 22 9 34 -7 8 -11 14 -26 14 -33
0 -7 4 -13 10 -13 5 0 19 -17 30 -37 11 -21 36 -60 56 -87 28 -37 33 -51 23
-57 -15 -9 -39 7 -39 27 0 21 -18 17 -31 -8 -10 -18 -8 -24 7 -35 17 -13 17
-14 -4 -29 -22 -15 -31 -54 -11 -54 17 0 99 73 99 89 0 13 27 40 43 41 4 0 7
-13 7 -30 0 -20 -5 -30 -15 -30 -8 0 -15 -4 -15 -8 0 -5 -21 -24 -47 -42 -52
-37 -63 -48 -63 -67 0 -22 20 -15 64 22 30 24 46 31 53 24 8 -8 18 6 37 46 31
68 32 86 8 108 -23 21 -31 21 -53 1 -17 -15 -20 -14 -46 29 -15 26 -34 47 -40
47 -7 0 -13 7 -13 15 0 18 -18 51 -41 78 -12 13 -15 30 -12 58 4 25 2 39 -6
39 -6 0 -11 6 -11 14 0 18 -48 71 -72 79 -9 3 -28 -3 -41 -13z"/>
<path d="M1065 3245 c-31 -30 -31 -39 -1 -62 l23 -18 -30 -50 c-17 -27 -36
-57 -43 -65 -24 -30 -64 -109 -64 -128 0 -11 -7 -25 -15 -32 -20 -17 -19 -40
3 -40 29 -1 52 -24 45 -49 -4 -16 -10 -20 -22 -15 -40 17 -81 -3 -81 -40 0
-49 42 -60 64 -18 l15 27 1 -28 c0 -23 4 -28 21 -25 31 4 47 33 32 56 -15 25
-2 43 27 40 35 -4 35 20 -1 39 -47 26 -85 60 -76 69 8 8 48 -11 76 -38 24 -21
44 -23 60 -4 13 15 8 20 -52 50 -56 29 -62 41 -36 67 24 24 41 12 31 -23 -10
-40 24 -43 101 -11 48 21 43 39 -10 35 -34 -3 -42 0 -47 16 -4 10 -16 24 -29
30 -12 6 -16 11 -9 11 6 1 12 6 12 12 0 16 61 101 68 95 3 -4 -4 -20 -16 -36
-29 -39 -28 -58 5 -71 34 -13 98 1 98 21 0 11 -10 14 -37 12 -42 -4 -49 9 -24
43 13 18 14 18 40 -2 27 -21 67 -21 65 1 -1 19 -101 78 -123 72 -22 -6 -46 9
-46 29 0 7 9 15 20 18 13 3 20 0 20 -9 0 -8 7 -14 17 -14 9 0 38 -14 64 -31
48 -30 79 -35 86 -13 6 19 -144 104 -183 104 -14 0 -36 -11 -49 -25z"/>
<path d="M3652 2583 c-15 -6 -42 -56 -42 -78 0 -25 55 -75 83 -75 56 0 88 52
71 116 -9 34 -70 54 -112 37z"/>
<path d="M747 2542 c-35 -39 -8 -120 41 -123 48 -3 92 29 92 68 0 59 -95 97
-133 55z"/>
<path d="M3636 2283 c-3 -4 -6 -21 -6 -40 0 -30 3 -33 29 -33 37 0 44 -11 31
-44 -7 -19 -17 -26 -35 -26 -20 0 -26 -4 -23 -17 3 -15 15 -18 83 -18 64 0 80
3 80 15 0 8 -5 14 -12 13 -7 -2 -23 1 -36 6 -19 8 -23 15 -20 35 5 22 11 26
38 26 30 0 52 20 38 34 -4 3 -31 7 -62 7 -31 1 -45 3 -31 6 80 12 90 15 90 28
0 11 -17 14 -79 14 -44 0 -82 -3 -85 -6z"/>
<path d="M802 2233 c-53 -3 -63 -7 -60 -21 3 -14 13 -16 51 -14 26 2 47 -1 47
-7 0 -5 -20 -21 -45 -35 -29 -17 -45 -34 -45 -46 0 -18 8 -20 68 -21 l67 -1
-60 -10 c-33 -5 -63 -14 -66 -20 -11 -18 9 -82 32 -100 24 -21 67 -23 103 -6
31 13 43 63 28 107 -6 16 -8 39 -5 50 5 19 1 21 -43 21 -49 1 -49 1 -26 18 72
53 77 59 63 76 -7 9 -21 15 -30 14 -9 -1 -44 -3 -79 -5z"/>
<path d="M3583 1913 c-7 -39 -7 -62 -1 -70 7 -9 5 -15 -7 -19 -15 -6 -55 -81
-55 -103 0 -9 118 -51 143 -51 38 0 49 92 16 134 -23 29 -21 30 14 17 32 -12
47 -1 57 45 14 58 12 84 -5 84 -9 0 -19 -17 -26 -45 -7 -28 -17 -45 -26 -45
-12 0 -15 9 -11 45 4 34 2 45 -9 45 -14 0 -17 -6 -27 -52 -11 -49 -29 -32 -24
22 4 42 2 50 -12 50 -12 0 -19 -14 -27 -57z"/>
<path d="M797 1854 c-11 -11 5 -35 29 -45 26 -9 33 -46 13 -66 -7 -7 -5 -15 6
-27 9 -9 15 -23 12 -30 -11 -28 15 -36 54 -15 50 25 57 24 32 -3 -41 -46 -56
-98 -28 -98 25 0 145 63 145 77 0 23 -21 24 -56 4 -19 -12 -37 -21 -40 -21 -3
0 9 20 26 44 33 49 35 57 19 73 -9 9 -26 4 -70 -18 -32 -16 -61 -29 -64 -29
-23 0 36 55 114 107 2 1 1 14 -3 28 -6 24 -8 25 -95 25 -48 0 -90 -3 -94 -6z"/>
<path d="M1028 1526 c-38 -23 -68 -46 -68 -53 0 -25 21 -22 74 12 30 19 61 35
68 35 14 0 -17 -28 -74 -66 -41 -26 -47 -41 -22 -51 9 -3 26 5 43 21 15 14 30
26 34 26 4 0 -2 -23 -14 -52 -32 -83 -14 -99 53 -46 l40 32 -6 -30 c-4 -19 -1
-36 8 -49 22 -29 20 -55 -4 -55 -14 0 -20 7 -20 23 0 12 -4 28 -9 36 -8 12
-12 12 -25 2 -22 -19 -20 -35 10 -70 27 -32 52 -38 85 -21 23 13 24 41 4 81
-18 34 -11 57 11 38 8 -6 14 -20 14 -30 0 -12 10 -23 25 -29 43 -16 42 -38 -5
-85 -40 -41 -46 -65 -15 -65 7 0 31 21 52 46 39 45 40 45 62 27 l22 -18 -40
-54 c-22 -30 -38 -58 -35 -62 12 -20 36 -6 70 41 35 49 37 50 55 34 26 -23 25
-29 -18 -86 -29 -40 -33 -52 -22 -59 23 -14 27 -11 61 41 20 31 38 48 46 45 8
-3 18 -5 23 -5 15 0 10 -18 -16 -60 -21 -33 -23 -43 -14 -69 10 -28 33 -44 69
-46 27 -1 50 15 75 56 22 34 28 38 45 29 18 -10 18 -12 -6 -66 -24 -55 -26
-84 -5 -84 5 0 22 27 37 60 25 55 29 59 53 53 14 -3 27 -7 28 -8 2 0 -6 -25
-17 -53 -11 -29 -20 -58 -20 -66 0 -13 77 -46 107 -46 28 0 13 36 -19 45 -20
6 -34 18 -36 29 -3 15 0 17 14 11 34 -15 68 -11 72 8 2 11 -3 17 -15 17 -11 0
-28 7 -39 15 -18 14 -15 15 29 9 38 -5 47 -3 47 9 0 15 -56 42 -103 51 -13 2
-57 21 -97 41 -58 29 -75 34 -82 23 -4 -7 -19 -31 -31 -53 -15 -25 -31 -40
-43 -40 -30 0 -28 37 6 84 25 34 29 45 19 57 -6 8 -16 14 -21 14 -12 0 -121
80 -131 97 -4 7 -12 13 -17 13 -5 0 -26 17 -47 39 -21 21 -48 43 -60 50 -13 6
-23 18 -23 25 0 22 -45 56 -75 56 -28 0 -28 0 -10 20 14 15 16 23 7 32 -8 8
-20 4 -46 -15 -19 -15 -37 -27 -40 -27 -3 0 6 23 19 52 21 46 23 54 10 68 -8
9 -15 21 -15 27 0 31 -28 28 -92 -11z"/>
<path d="M3351 1444 c-25 -21 -31 -33 -31 -65 0 -26 -4 -38 -11 -34 -17 11
-69 -16 -69 -36 0 -12 -7 -19 -20 -19 -16 0 -20 -7 -20 -34 0 -35 15 -57 51
-76 26 -15 24 -35 -8 -55 -25 -17 -27 -17 -45 6 -10 13 -26 36 -35 52 -10 15
-23 27 -30 27 -26 0 -25 -29 2 -65 15 -19 25 -35 22 -35 -3 0 4 -11 17 -25 29
-31 37 -31 87 2 29 19 39 32 36 45 -4 14 1 18 24 18 19 0 40 10 55 26 22 21
25 33 22 69 l-3 44 40 3 c34 3 43 8 56 35 9 18 22 40 29 48 7 9 11 17 9 18
-34 27 -70 47 -82 47 -8 0 -17 7 -21 15 -8 23 -41 18 -75 -11z"/>
<path d="M3030 1137 c-26 -21 -41 -57 -35 -80 6 -19 3 -18 -17 7 -21 25 -25
26 -37 12 -11 -13 -11 -20 3 -41 28 -42 18 -47 -29 -14 -41 30 -47 31 -61 17
-14 -13 -12 -22 17 -86 23 -52 37 -72 50 -72 24 0 24 11 -1 60 -24 48 -18 49
34 10 38 -29 66 -37 79 -24 3 3 -5 26 -19 52 -13 25 -22 47 -20 49 2 2 17 -10
34 -27 34 -33 53 -38 72 -15 7 8 21 15 31 15 11 0 19 5 19 11 0 8 -13 10 -38
7 -49 -7 -73 11 -75 54 -2 31 0 33 32 33 29 0 37 -5 53 -37 11 -21 24 -35 29
-32 17 10 9 47 -17 81 -19 25 -32 33 -57 33 -18 0 -39 -6 -47 -13z"/>
<path d="M2794 1007 c-3 -8 0 -25 5 -39 9 -23 7 -27 -16 -33 -26 -6 -43 6 -43
33 0 18 -33 14 -51 -7 -10 -11 -37 -21 -68 -25 -28 -4 -51 -12 -51 -18 0 -7
-4 -7 -12 0 -16 13 -118 3 -124 -12 -2 -6 2 -45 9 -86 12 -75 12 -75 42 -72
75 6 96 13 93 30 -3 13 -12 16 -46 14 -57 -5 -58 21 -2 36 32 8 40 7 40 -4 0
-8 6 -14 14 -14 7 0 16 -9 19 -20 4 -16 14 -20 51 -20 41 0 48 3 56 26 22 58
2 85 -33 44 -26 -31 -57 -11 -57 37 0 34 1 35 31 29 17 -3 39 -6 49 -6 11 0
24 -16 36 -45 12 -31 24 -45 37 -45 17 0 19 5 13 39 -5 30 -2 40 10 45 25 10
28 8 42 -24 14 -30 35 -39 47 -20 6 10 -39 135 -57 158 -13 16 -27 15 -34 -1z"/>
<path d="M1971 903 c-13 -12 -23 -35 -27 -65 -6 -41 -3 -49 19 -72 53 -53 125
-22 134 57 5 39 2 49 -20 71 -31 31 -75 34 -106 9z"/>
</g>
</svg>
